<svg width="1356" height="1168" viewBox="0 0 1356 1168" fill="none" xmlns="http://www.w3.org/2000/svg">
<path d="M236.551 926.973H102.549V1066.23H236.551V926.973Z" fill="white"/>
<path d="M86.8667 996.13C133.707 996.13 171.678 956.669 171.678 907.991C171.678 859.313 133.707 819.851 86.8667 819.851C40.0266 819.851 2.05527 859.313 2.05527 907.991C2.05527 956.669 40.0266 996.13 86.8667 996.13Z" fill="#616161"/>
<path d="M254.355 996.128C300.024 996.128 337.046 956.666 337.046 907.988C337.046 859.31 300.024 819.848 254.355 819.848C208.686 819.848 171.664 859.31 171.664 907.988C171.664 956.666 208.686 996.128 254.355 996.128Z" fill="#616161"/>
<path d="M86.858 1168C133.698 1168 171.669 1129.52 171.669 1082.06C171.669 1034.6 133.698 996.127 86.858 996.127C40.018 996.127 2.0466 1034.6 2.0466 1082.06C2.0466 1129.52 40.018 1168 86.858 1168Z" fill="#616161"/>
<path d="M254.355 1168C300.024 1168 337.046 1129.52 337.046 1082.06C337.046 1034.6 300.024 996.127 254.355 996.127C208.686 996.127 171.664 1034.6 171.664 1082.06C171.664 1129.52 208.686 1168 254.355 1168Z" fill="#616161"/>
<path d="M362.975 1031.52H301.952V1106.51H362.975V1031.52Z" fill="white"/>
<path d="M294.813 1068.76C316.143 1068.76 333.435 1047.51 333.435 1021.3C333.435 995.087 316.143 973.838 294.813 973.838C273.482 973.838 256.191 995.087 256.191 1021.3C256.191 1047.51 273.482 1068.76 294.813 1068.76Z" fill="#616161"/>
<path d="M371.086 1068.76C391.883 1068.76 408.742 1047.51 408.742 1021.3C408.742 995.087 391.883 973.838 371.086 973.838C350.289 973.838 333.429 995.087 333.429 1021.3C333.429 1047.51 350.289 1068.76 371.086 1068.76Z" fill="#616161"/>
<path d="M294.805 1161.3C316.136 1161.3 333.427 1140.59 333.427 1115.03C333.427 1089.48 316.136 1068.76 294.805 1068.76C273.475 1068.76 256.183 1089.48 256.183 1115.03C256.183 1140.59 273.475 1161.3 294.805 1161.3Z" fill="#616161"/>
<path d="M371.086 1161.3C391.883 1161.3 408.742 1140.59 408.742 1115.03C408.742 1089.48 391.883 1068.76 371.086 1068.76C350.289 1068.76 333.429 1089.48 333.429 1115.03C333.429 1140.59 350.289 1161.3 371.086 1161.3Z" fill="#616161"/>
<path d="M1268.39 107.988H1154.15V248.372H1268.39V107.988Z" fill="white"/>
<path d="M1140.77 177.705C1180.71 177.705 1213.08 137.925 1213.08 88.8544C1213.08 39.7835 1180.71 0.00366211 1140.77 0.00366211C1100.84 0.00366211 1068.47 39.7835 1068.47 88.8544C1068.47 137.925 1100.84 177.705 1140.77 177.705Z" fill="#616161"/>
<path d="M1283.57 177.702C1322.5 177.702 1354.06 137.922 1354.06 88.8508C1354.06 39.7798 1322.5 0 1283.57 0C1244.63 0 1213.07 39.7798 1213.07 88.8508C1213.07 137.922 1244.63 177.702 1283.57 177.702Z" fill="#616161"/>
<path d="M1140.77 350.959C1180.7 350.959 1213.07 312.174 1213.07 264.33C1213.07 216.486 1180.7 177.7 1140.77 177.7C1100.83 177.7 1068.46 216.486 1068.46 264.33C1068.46 312.174 1100.83 350.959 1140.77 350.959Z" fill="#616161"/>
<path d="M1283.57 350.959C1322.5 350.959 1354.06 312.174 1354.06 264.33C1354.06 216.486 1322.5 177.7 1283.57 177.7C1244.63 177.7 1213.07 216.486 1213.07 264.33C1213.07 312.174 1244.63 350.959 1283.57 350.959Z" fill="#616161"/>
<path d="M677.648 1031.85C925.171 1031.85 1125.83 831.342 1125.83 584C1125.83 336.658 925.171 136.147 677.648 136.147C430.125 136.147 229.468 336.658 229.468 584C229.468 831.342 430.125 1031.85 677.648 1031.85Z" fill="#FFFF8D"/>
<path d="M901.864 834.798C901.864 913.946 962.042 978.11 1036.27 978.11C1110.51 978.11 1170.69 913.946 1170.69 834.798C1170.69 755.649 1110.51 691.485 1036.27 691.485C962.042 691.485 901.864 755.649 901.864 834.798Z" fill="#C4C4C4"/>
<path d="M1170.69 906.454C1170.69 946.03 1200.78 978.111 1237.89 978.111C1275.01 978.111 1305.1 946.03 1305.1 906.454C1305.1 866.878 1275.01 834.798 1237.89 834.798C1200.78 834.798 1170.69 866.878 1170.69 906.454Z" fill="#C4C4C4"/>
<path d="M795.968 863.027C795.968 926.586 844.292 978.11 903.904 978.11C963.515 978.11 1011.84 926.586 1011.84 863.027C1011.84 799.467 963.515 747.943 903.904 747.943C844.292 747.943 795.968 799.467 795.968 863.027Z" fill="#C4C4C4"/>
<path d="M1239.93 834.798H901.864L901.867 978.111H1239.93V834.798Z" fill="#C4C4C4"/>
<path d="M155.95 352.908C155.95 429.09 214.008 490.847 285.627 490.847C357.247 490.847 415.305 429.09 415.305 352.908C415.305 276.727 357.247 214.97 285.627 214.97C214.008 214.97 155.95 276.727 155.95 352.908Z" fill="#C4C4C4"/>
<path d="M415.309 421.878C415.309 459.967 444.34 490.847 480.148 490.847C515.959 490.847 544.987 459.967 544.987 421.878C544.987 383.789 515.959 352.908 480.148 352.908C444.34 352.908 415.309 383.789 415.309 421.878Z" fill="#C4C4C4"/>
<path d="M53.7817 380.077C53.7817 441.254 100.405 490.847 157.917 490.847C215.429 490.847 262.052 441.254 262.052 380.077C262.052 318.902 215.429 269.309 157.917 269.309C100.405 269.309 53.7817 318.902 53.7817 380.077Z" fill="#C4C4C4"/>
<path d="M482.113 352.908H155.95L155.952 490.847H482.113V352.908Z" fill="#C4C4C4"/>
</svg>
