<svg width="378" height="326" viewBox="0 0 378 326" fill="none" xmlns="http://www.w3.org/2000/svg">
<rect x="28.6016" y="258.727" width="37.3739" height="38.8689" fill="white"/>
<ellipse cx="24.2276" cy="253.429" rx="23.6544" ry="24.6006" fill="#616161"/>
<ellipse cx="70.941" cy="253.428" rx="23.063" ry="24.6006" fill="#616161"/>
<ellipse cx="24.2252" cy="302.014" rx="23.6544" ry="23.9856" fill="#616161"/>
<ellipse cx="70.941" cy="302.014" rx="23.063" ry="23.9856" fill="#616161"/>
<rect x="84.2163" y="287.907" width="17.0195" height="20.9294" fill="white"/>
<ellipse cx="82.225" cy="285.054" rx="10.7719" ry="13.2465" fill="#616161"/>
<ellipse cx="103.498" cy="285.054" rx="10.5026" ry="13.2465" fill="#616161"/>
<ellipse cx="82.223" cy="311.216" rx="10.7719" ry="12.9153" fill="#616161"/>
<ellipse cx="103.498" cy="311.216" rx="10.5026" ry="12.9153" fill="#616161"/>
<rect x="321.899" y="30.1403" width="31.8627" height="39.1825" fill="white"/>
<ellipse cx="318.168" cy="24.8" rx="20.1663" ry="24.7991" fill="#616161"/>
<ellipse cx="357.994" cy="24.7991" rx="19.6621" ry="24.7991" fill="#616161"/>
<ellipse cx="318.166" cy="73.777" rx="20.1663" ry="24.1791" fill="#616161"/>
<ellipse cx="357.994" cy="73.777" rx="19.6621" ry="24.1791" fill="#616161"/>
<circle cx="189" cy="163" r="125" fill="#FFFF8D"/>
<path d="M251.535 233C251.535 255.091 268.319 273 289.023 273C309.727 273 326.511 255.091 326.511 233C326.511 210.909 309.727 193 289.023 193C268.319 193 251.535 210.909 251.535 233Z" fill="#C4C4C4"/>
<path d="M326.512 253C326.512 264.046 334.904 273 345.256 273C355.608 273 364 264.046 364 253C364 241.954 355.608 233 345.256 233C334.904 233 326.512 241.954 326.512 253Z" fill="#C4C4C4"/>
<path d="M222 240.879C222 258.619 235.478 273 252.104 273C268.73 273 282.208 258.619 282.208 240.879C282.208 223.139 268.73 208.758 252.104 208.758C235.478 208.758 222 223.139 222 240.879Z" fill="#C4C4C4"/>
<path d="M345.824 233L251.535 233L251.536 273H345.824V233Z" fill="#C4C4C4"/>
<path d="M43.4952 98.5C43.4952 119.763 59.6881 137 79.6631 137C99.6381 137 115.831 119.763 115.831 98.5C115.831 77.237 99.6381 60 79.6631 60C59.6881 60 43.4952 77.237 43.4952 98.5Z" fill="#C4C4C4"/>
<path d="M115.832 117.75C115.832 128.381 123.929 137 133.916 137C143.904 137 152 128.381 152 117.75C152 107.119 143.904 98.5 133.916 98.5C123.929 98.5 115.832 107.119 115.832 117.75Z" fill="#C4C4C4"/>
<path d="M15 106.083C15 123.158 28.0034 137 44.0439 137C60.0845 137 73.0879 123.158 73.0879 106.083C73.0879 89.0085 60.0845 75.1667 44.0439 75.1667C28.0034 75.1667 15 89.0085 15 106.083Z" fill="#C4C4C4"/>
<path d="M134.464 98.5L43.4952 98.5L43.496 137H134.464V98.5Z" fill="#C4C4C4"/>
</svg>
