<svg width="350" height="302" viewBox="0 0 350 302" fill="none" xmlns="http://www.w3.org/2000/svg">
<g clip-path="url(#clip0)">
<path d="M61.0884 239.387H26.4829V275.351H61.0884V239.387Z" fill="white"/>
<path d="M22.433 257.247C34.5292 257.247 44.3352 247.056 44.3352 234.485C44.3352 221.914 34.5292 211.723 22.433 211.723C10.3367 211.723 0.530762 221.914 0.530762 234.485C0.530762 247.056 10.3367 257.247 22.433 257.247Z" fill="#616161"/>
<path d="M65.6862 257.246C77.48 257.246 87.0408 247.055 87.0408 234.484C87.0408 221.913 77.48 211.723 65.6862 211.723C53.8923 211.723 44.3315 221.913 44.3315 234.484C44.3315 247.055 53.8923 257.246 65.6862 257.246Z" fill="#616161"/>
<path d="M22.4308 301.631C34.5271 301.631 44.333 291.695 44.333 279.439C44.333 267.182 34.5271 257.246 22.4308 257.246C10.3345 257.246 0.528564 267.182 0.528564 279.439C0.528564 291.695 10.3345 301.631 22.4308 301.631Z" fill="#616161"/>
<path d="M65.6862 301.631C77.48 301.631 87.0408 291.695 87.0408 279.439C87.0408 267.182 77.48 257.246 65.6862 257.246C53.8923 257.246 44.3315 267.182 44.3315 279.439C44.3315 291.695 53.8923 301.631 65.6862 301.631Z" fill="#616161"/>
<path d="M93.7368 266.386H77.978V285.751H93.7368V266.386Z" fill="white"/>
<path d="M76.1343 276.003C81.6427 276.003 86.1082 270.515 86.1082 263.746C86.1082 256.977 81.6427 251.49 76.1343 251.49C70.6258 251.49 66.1603 256.977 66.1603 263.746C66.1603 270.515 70.6258 276.003 76.1343 276.003Z" fill="#616161"/>
<path d="M95.8314 276.003C101.202 276.003 105.556 270.515 105.556 263.746C105.556 256.977 101.202 251.49 95.8314 251.49C90.4607 251.49 86.1068 256.977 86.1068 263.746C86.1068 270.515 90.4607 276.003 95.8314 276.003Z" fill="#616161"/>
<path d="M76.1324 299.902C81.6409 299.902 86.1064 294.552 86.1064 287.953C86.1064 281.353 81.6409 276.003 76.1324 276.003C70.6239 276.003 66.1584 281.353 66.1584 287.953C66.1584 294.552 70.6239 299.902 76.1324 299.902Z" fill="#616161"/>
<path d="M95.8314 299.902C101.202 299.902 105.556 294.552 105.556 287.953C105.556 281.353 101.202 276.003 95.8314 276.003C90.4607 276.003 86.1068 281.353 86.1068 287.953C86.1068 294.552 90.4607 299.902 95.8314 299.902Z" fill="#616161"/>
<path d="M327.557 27.8875H298.055V64.1411H327.557V27.8875Z" fill="white"/>
<path d="M294.6 45.8917C304.913 45.8917 313.272 35.6187 313.272 22.9463C313.272 10.274 304.913 0.000976562 294.6 0.000976562C284.287 0.000976562 275.927 10.274 275.927 22.9463C275.927 35.6187 284.287 45.8917 294.6 45.8917Z" fill="#616161"/>
<path d="M331.476 45.8907C341.531 45.8907 349.682 35.6177 349.682 22.9454C349.682 10.273 341.531 0 331.476 0C321.421 0 313.27 10.273 313.27 22.9454C313.27 35.6177 321.421 45.8907 331.476 45.8907Z" fill="#616161"/>
<path d="M294.598 90.6338C304.911 90.6338 313.271 80.6177 313.271 68.2621C313.271 55.9065 304.911 45.8904 294.598 45.8904C284.286 45.8904 275.926 55.9065 275.926 68.2621C275.926 80.6177 284.286 90.6338 294.598 90.6338Z" fill="#616161"/>
<path d="M331.476 90.6338C341.531 90.6338 349.682 80.6177 349.682 68.2621C349.682 55.9065 341.531 45.8904 331.476 45.8904C321.421 45.8904 313.27 55.9065 313.27 68.2621C313.27 80.6177 321.421 90.6338 331.476 90.6338Z" fill="#616161"/>
<path d="M175 266.472C238.922 266.472 290.741 214.691 290.741 150.816C290.741 86.9405 238.922 35.1594 175 35.1594C111.078 35.1594 59.2593 86.9405 59.2593 150.816C59.2593 214.691 111.078 266.472 175 266.472Z" fill="#FFFF8D"/>
<path d="M232.903 215.583C232.903 236.023 248.444 252.593 267.614 252.593C286.784 252.593 302.325 236.023 302.325 215.583C302.325 195.144 286.784 178.573 267.614 178.573C248.444 178.573 232.903 195.144 232.903 215.583Z" fill="#C4C4C4"/>
<path d="M302.326 234.088C302.326 244.309 310.096 252.593 319.681 252.593C329.267 252.593 337.037 244.309 337.037 234.088C337.037 223.868 329.267 215.583 319.681 215.583C310.096 215.583 302.326 223.868 302.326 234.088Z" fill="#C4C4C4"/>
<path d="M205.556 222.873C205.556 239.287 218.035 252.593 233.43 252.593C248.824 252.593 261.304 239.287 261.304 222.873C261.304 206.459 248.824 193.153 233.43 193.153C218.035 193.153 205.556 206.459 205.556 222.873Z" fill="#C4C4C4"/>
<path d="M320.207 215.583H232.903L232.904 252.593H320.207V215.583Z" fill="#C4C4C4"/>
<path d="M40.2733 91.1373C40.2733 110.811 55.2667 126.759 73.7621 126.759C92.2575 126.759 107.251 110.811 107.251 91.1373C107.251 71.4637 92.2575 55.5151 73.7621 55.5151C55.2667 55.5151 40.2733 71.4637 40.2733 91.1373Z" fill="#C4C4C4"/>
<path d="M107.252 108.948C107.252 118.785 114.749 126.759 123.996 126.759C133.244 126.759 140.741 118.785 140.741 108.948C140.741 99.1119 133.244 91.1372 123.996 91.1372C114.749 91.1372 107.252 99.1119 107.252 108.948Z" fill="#C4C4C4"/>
<path d="M13.8889 98.1534C13.8889 113.952 25.9291 126.759 40.7814 126.759C55.6338 126.759 67.674 113.952 67.674 98.1534C67.674 82.3552 55.6338 69.5481 40.7814 69.5481C25.9291 69.5481 13.8889 82.3552 13.8889 98.1534Z" fill="#C4C4C4"/>
<path d="M124.504 91.1372H40.2733L40.2741 126.759H124.504V91.1372Z" fill="#C4C4C4"/>
</g>
<defs>
<clipPath id="clip0">
<rect width="350" height="301.631" fill="white"/>
</clipPath>
</defs>
</svg>
